<?xml version="1.0" standalone="no"?> <!DOCTYPE svg PUBLIC "-//W3C//DTD SVG 1.0//EN" "http://www.w3.org/TR/2001/REC-SVG-20010904/DTD/svg10.dtd" > <svg xmlns="http://www.w3.org/2000/svg" width="100%" height="100%">
<defs >
<font id="respublikafybold" horiz-adv-x="545" ><font-face
    font-family="RespublikaFY-Bold"
    units-per-em="1000"
    panose-1="2 0 8 6 3 0 0 2 0 4"
    ascent="900"
    descent="-300"
    alphabetic="0" />
<missing-glyph horiz-adv-x="602" d="M305 435Q321 464 346 482T403 500Q446 500 474 471T502 395Q502 365 489 330T450 260T387 193T301 135Q253 160 216 192T153 260T114 330T100 395Q100 441 128 470T199 500Q230 500 255 482T297 435H305Z" />
<glyph unicode=" " glyph-name="space" horiz-adv-x="250" />
<glyph unicode="!" glyph-name="exclam" horiz-adv-x="275" d="M136 -8Q100 -8 81 12T61 64Q61 96 82 118T141 140Q178 140 196 120T215 68Q215 36 194 14T136 -8ZM83 209L67 643V682Q101 690 135 690Q173 690 207 682V643L191 209H83Z" />
<glyph unicode="&quot;" glyph-name="quotedbl" horiz-adv-x="424" d="M261 411L247 618V682Q259 686 274 687T305 689Q321 689 336 688T364 682V617L351 411H261ZM74 411L60 618V682Q72 686 87 687T118 689Q134 689 149 688T177 682V617L164 411H74Z" />
<glyph unicode="#" glyph-name="numbersign" horiz-adv-x="682" d="M122 0L138 118H35L49 218H152L170 343H67L81 442H184L200 557H316L299 442H426L443 557H558L542 442H647L633 343H528L510 218H615L601 118H496L480 0H364L381 118H253L237 0H122ZM268 218H395L413
343H285L268 218Z" />
<glyph unicode="$" glyph-name="dollar" horiz-adv-x="514" d="M217 -7Q168 -5 123 6T42 34L70 143Q114 125 157 114T248 103Q296 103 324 125T352 191Q352 209 347 222T330 247T295 269T237 292L215 300Q168 315 136 333T83 374T55 426T46 495Q46 563 88 615T217
684V782Q225 785 238 787T266 789Q280 789 293 787T314 782V689Q355 685 395 674T469 647L436 541Q410 555 368 567T277 579Q236 579 207 565T173 519Q171 495 180 478Q187 458 206 443T268 414L291 407Q339 391 374 372T433 329T467 274T478 203Q478 118 435 66T314
-2V-100Q306 -103 293 -105T265 -107Q251 -107 238 -105T217 -100V-7Z" />
<glyph unicode="%" glyph-name="percent" horiz-adv-x="1021" d="M158 387Q173 357 215 357Q257 357 272 387T287 481Q287 545 272 575T215 605Q172 605 158 575T143 481Q143 417 158 387ZM215 270Q131 270 83 320T35 481Q35 590 83 640T215 690Q300 690 347 641T395
481Q395 372 347 321T215 270ZM740 111Q755 81 797 81Q839 81 854 111T869 204Q869 268 854 298T797 329Q754 329 740 299T725 204Q725 141 740 111ZM797 -6Q712 -6 665 44T617 204Q617 313 665 363T797 414Q881 414 928 364T976 204Q976 95 928 45T797 -6ZM367
0Q341 -9 309 -9Q274 -9 247 0L640 682Q669 690 703 690Q738 690 759 682L367 0Z" />
<glyph unicode="&amp;" glyph-name="ampersand" horiz-adv-x="699" d="M496 62Q452 27 398 10T282 -8Q167 -8 104 39T40 172Q40 202 48 226T73 274T119 320T190 371Q168 394 153 413T128 450T114 486T109 527Q109 561 122 591T160 643T221 677T302 690Q348 690
384 679T444 647T481 599T494 540Q494 516 488 495T465 453T422 410T354 362L495 219Q510 250 517 287T526 367Q548 375 577 375Q609 375 635 366Q631 296 615 240T571 141L694 16Q680 4 657 0T610 -5Q591 -5 577 -4T558 0L496 62ZM257 303Q203 268 184 243T165
186Q165 96 292 96Q333 96 365 106T422 137L257 303ZM309 444Q351 470 367 490T383 536Q384 564 363 584T304 604Q263 604 244 582T224 531Q224 518 227 507T238 485T258 460T287 430L309 444Z" />
<glyph unicode="&apos;" glyph-name="quotesingle" horiz-adv-x="237" d="M74 411L60 618V682Q72 686 87 687T118 689Q134 689 149 688T177 682V617L164 411H74Z" />
<glyph unicode="(" glyph-name="parenleft" horiz-adv-x="381" d="M396 -236Q304 -216 239 -165T131 -40T68 121T48 305Q48 399 68 488T130 649T238 774T396 846V747Q337 726 295 684T225 584T184 459T171 317V293Q171 220 184 152T224 26T294 -73T396 -137V-236Z" />
<glyph unicode=")" glyph-name="parenright" horiz-adv-x="381" d="M-15 -137Q44 -116 86 -74T156 26T197 151T210 293V317Q210 390 197 458T157 584T87 683T-15 747V846Q76 826 142 774T250 650T313 488T333 305Q333 210 313 122T251 -40T142 -164T-15 -236V-137Z" />
<glyph unicode="*" glyph-name="asterisk" horiz-adv-x="438" d="M145 405Q132 408 119 416T94 432T75 448T66 459L150 567L21 600Q20 616 23 632T32 662T42 685T49 696L175 647L169 783Q180 787 192 788T217 790Q237 790 252 788T271 783L265 647L389 697Q398
689 403 675T412 645T417 618T417 602L286 566L372 460Q366 448 355 438T330 421T307 410T293 406L219 520L145 405Z" />
<glyph unicode="+" glyph-name="plus" horiz-adv-x="512" d="M35 255V359H197V517H316V359H477V255H316V95H197V255H35Z" />
<glyph unicode="," glyph-name="comma" horiz-adv-x="246" d="M18 -125L86 -3Q46 16 46 63Q46 95 67 116T123 138Q165 138 185 114T206 59Q206 30 190 0T138 -77L73 -161L18 -125Z" />
<glyph unicode="-" glyph-name="hyphen" horiz-adv-x="363" d="M40 255V358H323V255H40Z" />
<glyph unicode="." glyph-name="period" horiz-adv-x="238" d="M116 -8Q79 -8 60 13T40 66Q40 99 62 122T122 146Q160 146 179 125T198 70Q198 38 176 15T116 -8Z" />
<glyph unicode="/" glyph-name="slash" horiz-adv-x="418" d="M82 -139Q70 -144 57 -145T29 -147Q9 -147 -8 -145T-37 -139L323 786Q352 794 386 794Q419 794 441 786L82 -139Z" />
<glyph unicode="0" glyph-name="zero" horiz-adv-x="608" d="M200 162Q230 104 304 104Q380 104 408 162T437 340Q437 461 408 519T304 578Q228 578 200 520T171 340Q171 221 200 162ZM304 -8Q179 -8 110 76T40 340Q40 518 110 604T304 690Q366 690 415 669T498
605T550 496T568 340Q568 163 498 78T304 -8Z" />
<glyph unicode="1" glyph-name="one" horiz-adv-x="419" d="M55 1V113H170V546L45 520V639L294 692V113H386V1H55Z" />
<glyph unicode="2" glyph-name="two" horiz-adv-x="500" d="M67 0Q63 14 59 32Q56 47 54 67T54 111L199 279Q224 308 246 335T286 388T314 439T324 488Q324 531 299 555T224 579Q185 579 148 565T75 527L28 623Q68 653 119 671T233 690Q289 690 330 675T398 635T438
574T451 499Q451 462 438 427T404 356T353 286T291 215L198 111L460 113V0H67Z" />
<glyph unicode="3" glyph-name="three" horiz-adv-x="502" d="M70 144Q101 124 139 113T217 102Q273 102 302 128T331 197Q331 249 299 272T201 296H126V401H202Q235 401 257 409T293 431T313 462T319 499Q319 536 293 558T215 580Q178 580 140 568T70 535L23
630Q64 656 115 673T227 690Q283 690 324 675T391 635T431 578T444 510Q444 463 420 421T347 354Q400 334 427 294T454 197Q454 158 441 122T399 56T328 10T225 -8Q168 -8 117 6T28 45L70 144Z" />
<glyph unicode="4" glyph-name="four" horiz-adv-x="566" d="M32 130Q32 138 26 167T21 233L323 682Q334 686 354 687T396 689Q416 689 433 688T458 682V240Q481 240 503 240T548 241V130H458V0Q450 -4 431 -6T392 -8Q372 -8 356 -6T334 0V130H32ZM154 239Q199
239 244 239T334 240V514L154 239Z" />
<glyph unicode="5" glyph-name="five" horiz-adv-x="491" d="M69 141Q104 123 140 113T214 103Q269 103 301 130T334 216Q334 238 328 256T305 289T264 311T201 319H68V682H427V569H186V428H216Q332 428 394 377T457 224Q457 177 443 135T399 62T325 11T222 -8Q167
-8 118 5T30 41L69 141Z" />
<glyph unicode="6" glyph-name="six" horiz-adv-x="539" d="M429 552Q409 564 387 571T331 578Q298 578 269 569T218 537T181 473T162 370Q186 402 224 418T312 434Q354 434 390 421T452 380T494 314T509 224Q509 168 493 125T446 52T374 7T280 -8Q224 -8 180
9T104 64T57 159T40 298Q40 401 60 475T117 597T207 667T326 690Q383 690 420 678T486 645L429 552ZM215 311Q187 291 173 256Q170 181 196 141T280 100Q336 100 361 132T386 219Q386 269 361 300T285 331Q244 331 215 311Z" />
<glyph unicode="7" glyph-name="seven" horiz-adv-x="464" d="M193 0Q183 -3 170 -5T140 -7Q117 -7 94 -4T60 7L315 571H20V682H427Q428 677 431 665T438 637T442 604T443 572L193 0Z" />
<glyph unicode="8" glyph-name="eight" horiz-adv-x="554" d="M103 309Q129 331 170 346Q148 357 129 371T96 405T73 450T65 509Q65 547 78 580T119 637T187 676T283 690Q335 690 374 676T440 638T480 580T494 509Q494 490 490 470T474 429T444 391T394 358Q419
346 441 331T480 295T507 246T517 181Q517 93 456 42T279 -9Q225 -9 181 3T105 39T56 97T38 177Q38 196 43 219T63 265T103 309ZM308 287Q285 297 259 307Q229 295 210 281T181 251T166 218T162 185Q162 142 190 114T275 86Q334 86 362 115T390 186Q390 212 379
230T350 263T308 287ZM257 413Q277 404 300 395Q339 414 356 442T374 507Q374 544 353 571T281 598Q233 598 211 571T189 508Q189 484 198 467T222 436T257 413Z" />
<glyph unicode="9" glyph-name="nine" horiz-adv-x="539" d="M110 130Q130 118 152 111T208 104Q241 104 270 113T321 145T358 209T378 312Q353 280 315 264T227 248Q185 248 149 261T87 302T45 368T30 458Q30 514 46 557T93 630T165 675T259 690Q315 690 359
673T435 618T482 523T499 384Q499 280 479 206T422 85T332 15T213 -8Q156 -8 120 4T53 37L110 130ZM324 371Q352 391 366 426Q369 501 343 541T259 582Q203 582 178 550T153 463Q153 413 178 382T254 351Q296 351 324 371Z" />
<glyph unicode=":" glyph-name="colon" horiz-adv-x="248" d="M121 322Q84 322 65 343T45 397Q45 429 67 453T127 477Q165 477 184 455T203 401Q203 369 181 346T121 322ZM121 -8Q84 -8 65 13T45 66Q45 99 67 122T127 146Q165 146 184 125T203 70Q203 38 181 15T121 -8Z" />
<glyph unicode=";" glyph-name="semicolon" horiz-adv-x="256" d="M23 -125L91 -3Q51 16 51 63Q51 95 72 116T128 138Q170 138 190 114T211 59Q211 30 195 0T143 -77L78 -161L23 -125ZM124 322Q87 322 68 343T48 397Q48 429 70 453T130 477Q167 477 186 455T206
401Q206 369 184 346T124 322Z" />
<glyph unicode="&lt;" glyph-name="less" horiz-adv-x="411" d="M35 252V362L376 559V426L162 306L376 189V55L35 252Z" />
<glyph unicode="=" glyph-name="equal" horiz-adv-x="512" d="M35 356V460H477V356H35ZM35 156V260H477V156H35Z" />
<glyph unicode="&gt;" glyph-name="greater" horiz-adv-x="411" d="M35 54V187L250 306L35 424V558L376 361V251L35 54Z" />
<glyph unicode="?" glyph-name="question" horiz-adv-x="473" d="M214 -7Q178 -7 159 13T140 65Q140 97 161 119T220 141Q256 141 275 121T294 69Q294 37 273 15T214 -7ZM158 207V232Q158 280 170 311T202 364T242 401T283 430T314 463T327 508Q327 542 301 563T217
584Q166 584 128 568T63 530L10 620Q51 651 103 670T226 690Q332 690 392 643T453 512Q453 467 440 438T406 388T363 354T319 324T286 287T272 232V207H158Z" />
<glyph unicode="@" glyph-name="at" horiz-adv-x="833" d="M606 -63Q565 -91 515 -106T404 -121Q321 -121 256 -98T144 -28T74 88T50 251Q50 333 77 406T156 535T279 622T440 654Q516 654 579 632T687 566T758 460T783 316Q783 257 770 213T732 139T675 94T601
79Q563 79 536 96T498 142Q481 112 453 96T388 79Q320 79 284 121T248 241Q248 287 261 327T298 398T355 446T427 464Q465 464 487 449T519 405L528 446Q543 450 560 450Q572 450 581 448T599 444Q607 441 614 438L571 246Q569 233 568 225T566 209Q566 190 574
179T602 168Q634 168 657 206T681 314Q681 430 619 494T439 558Q375 558 324 535T236 470T179 372T159 251Q159 117 225 48T407 -21Q454 -21 493 -9T561 23L606 -63ZM345 261Q340 216 356 193T408 169Q435 169 452 186T476 232Q478 243 485 274T499 344Q492 359
479 370T437 381Q415 381 399 372T372 347T355 313T346 272L345 261Z" />
<glyph unicode="A" glyph-name="A" horiz-adv-x="609" d="M142 0Q134 -4 118 -6T82 -8Q59 -8 39 -5T13 7L234 681Q242 686 264 688T309 690Q332 690 351 688T376 681L597 7Q592 -1 571 -4T525 -8Q505 -8 488 -6T462 0L409 171H193L142 0ZM221 280H382L352 377Q341
412 332 444T317 500Q309 528 304 553H299Q293 527 285 498Q278 473 270 442T251 377L221 280Z" />
<glyph unicode="B" glyph-name="B" horiz-adv-x="590" d="M85 0V682H275Q394 682 458 639T523 503Q523 455 502 417T441 357Q494 338 521 298T548 204Q548 104 483 52T305 0H85ZM207 107H291Q363 107 391 134T420 211Q420 256 391 279T297 303H207V107ZM207 402H283Q345
402 370 426T396 493Q396 535 367 555T270 576H207V402Z" />
<glyph unicode="C" glyph-name="C" horiz-adv-x="531" d="M505 46Q462 15 422 4T328 -8Q190 -8 115 77T40 342Q40 431 60 496T117 605T205 669T319 690Q378 690 423 675T503 631L439 540Q393 577 328 577Q244 577 208 520T171 342Q171 221 209 162T334 103Q371
103 400 113T456 143L505 46Z" />
<glyph unicode="D" glyph-name="D" horiz-adv-x="626" d="M85 0V682H284Q353 682 408 664T503 605T564 503T586 352Q586 264 565 198T504 88T409 22T285 0H85ZM209 110H281Q376 110 415 171T455 352Q455 468 414 520T280 572H209V110Z" />
<glyph unicode="E" glyph-name="E" horiz-adv-x="533" d="M85 0V682H463V569H209V406H449V294H209V113H476V0H85Z" />
<glyph unicode="F" glyph-name="F" horiz-adv-x="500" d="M209 0Q201 -4 182 -6T143 -8Q123 -8 107 -6T85 0V682H453V569H209V391H438V279H209V0Z" />
<glyph unicode="G" glyph-name="G" horiz-adv-x="600" d="M533 36Q489 13 444 3T342 -8Q272 -8 216 13T121 76T61 184T40 340Q40 429 61 495T121 604T214 669T335 690Q392 690 438 675T519 636L458 541Q410 578 343 578Q251 578 211 520T171 340Q171 220 213 162T349
103Q386 103 414 114V265H315V370H533V36Z" />
<glyph unicode="H" glyph-name="H" horiz-adv-x="670" d="M209 0Q201 -4 182 -6T143 -8Q123 -8 107 -6T85 0V682Q93 686 112 688T151 690Q171 690 187 688T209 682V412H461V682Q469 686 488 688T527 690Q547 690 563 688T585 682V0Q577 -4 558 -6T519 -8Q499 -8
483 -6T461 0V299H209V0Z" />
<glyph unicode="I" glyph-name="I" horiz-adv-x="414" d="M45 0V113H145V569H45V682H369V569H269V113H369V0H45Z" />
<glyph unicode="J" glyph-name="J" horiz-adv-x="442" d="M55 124Q74 115 99 108T160 100Q200 100 221 117T243 164V569H58V682H367V144Q367 114 356 87T322 38T261 5T171 -8Q126 -8 87 1T23 23L55 124Z" />
<glyph unicode="K" glyph-name="K" horiz-adv-x="605" d="M209 0Q201 -4 182 -6T143 -8Q123 -8 107 -6T85 0V682Q93 686 112 688T151 690Q171 690 187 688T209 682V380L439 680Q454 685 472 686T509 688Q535 688 554 684T575 672L362 404L591 10Q585 1 562 -3T512
-7Q493 -7 477 -5T452 0L277 310L209 230V0Z" />
<glyph unicode="L" glyph-name="L" horiz-adv-x="482" d="M85 0V682Q93 686 112 688T151 690Q171 690 187 688T209 682V113H457V0H85Z" />
<glyph unicode="M" glyph-name="M" horiz-adv-x="742" d="M206 0Q198 -4 180 -6T142 -8Q123 -8 107 -6T85 0V682Q96 686 113 687T151 689Q171 689 188 688T217 682L321 448Q330 427 339 404T355 362Q363 339 370 318H375Q382 339 390 361Q397 380 405 403T424
448L528 682Q537 686 554 687T592 689Q612 689 630 688T657 682V0Q649 -4 631 -6T593 -8Q574 -8 558 -6T536 0V237L538 441H531Q524 421 515 399Q507 380 498 357T477 310L419 190Q411 185 397 183T367 181Q353 181 341 183T322 190L264 310Q253 334 243 357T226
399Q217 420 211 439H204L206 240V0Z" />
<glyph unicode="N" glyph-name="N" horiz-adv-x="659" d="M204 0Q196 -4 179 -6T141 -8Q123 -8 107 -6T85 0V682Q96 687 112 689T148 691Q168 691 186 689T215 682L396 341Q404 324 414 303T432 263Q442 241 450 218H457L455 392V682Q461 686 477 688T512 690Q532
690 549 688T574 682V0Q566 -5 550 -7T516 -9Q496 -9 477 -7T448 0L264 341Q255 358 245 379T227 420Q217 442 209 465H202L204 291V0Z" />
<glyph unicode="O" glyph-name="O" horiz-adv-x="651" d="M208 162Q245 104 326 104Q408 104 444 162T480 340Q480 461 443 519T325 578Q243 578 207 520T171 340Q171 220 208 162ZM208 13Q156 34 119 76T61 184T40 340Q40 429 61 495T119 604T209 669T325 690Q390
690 442 669T532 605T590 496T611 340Q611 251 590 186T532 78T442 13T326 -8Q261 -8 208 13Z" />
<glyph unicode="P" glyph-name="P" horiz-adv-x="578" d="M209 0Q201 -4 182 -6T143 -8Q123 -8 107 -6T85 0V682H278Q401 682 472 629T543 460Q543 401 524 356T470 279T386 232T275 216H209V0ZM209 326H247Q293 326 324 333T375 357T403 398T412 460Q412 517
380 545T271 574H209V326Z" />
<glyph unicode="Q" glyph-name="Q" horiz-adv-x="651" d="M467 24Q405 -9 326 -9Q261 -9 209 12T119 76T61 185T40 341Q40 430 61 495T119 604T209 669T325 691Q390 691 442 670T532 606T590 497T611 341Q611 265 596 207T553 105L613 45Q610 36 600 24T576 1T548
-19T521 -30L467 24ZM332 168Q335 177 346 190T372 215T400 235T424 244L462 201Q480 255 480 341Q480 461 443 519T325 578Q243 578 207 520T171 341Q171 221 208 163T326 104Q358 104 382 113L332 168Z" />
<glyph unicode="R" glyph-name="R" horiz-adv-x="600" d="M209 0Q201 -4 182 -6T143 -8Q123 -8 107 -6T85 0V682H275Q330 682 376 672T457 639T512 584T539 505Q540 497 540 488T541 471Q541 463 541 454T539 437Q532 382 504 342T430 279L566 10Q560 1 537 -3T488
-7Q470 -7 454 -5T429 0L313 245Q303 244 294 244T273 244H209V0ZM209 352H245Q334 352 373 379T412 471Q412 521 378 546T268 572H209V352Z" />
<glyph unicode="S" glyph-name="S" horiz-adv-x="517" d="M70 143Q108 126 146 117T225 105Q272 103 302 120Q325 128 338 146T352 191Q352 209 347 222T330 247T295 269T237 292L215 300Q168 316 136 333T84 374T55 426T46 495Q46 535 61 570T105 632T179 674T283
690Q331 690 380 678T469 647L436 541Q410 555 368 567T277 579Q234 579 206 565T173 519Q170 481 189 458T268 414L291 407Q337 391 371 373T428 333T463 282T478 217V188Q473 94 413 43T246 -8Q192 -8 138 4T42 34L70 143Z" />
<glyph unicode="T" glyph-name="T" horiz-adv-x="555" d="M339 0Q331 -4 312 -6T273 -8Q253 -8 237 -6T215 0V569H25V682H530V569H339V0Z" />
<glyph unicode="U" glyph-name="U" horiz-adv-x="651" d="M199 248Q199 179 230 142T327 104Q391 104 421 141T452 248V682Q460 686 479 688T518 690Q538 690 554 688T576 682V237Q576 177 559 131T509 55T430 8T327 -8Q269 -8 223 7T143 53T93 130T75 237V682Q83
686 102 688T141 690Q161 690 177 688T199 682V248Z" />
<glyph unicode="V" glyph-name="V" horiz-adv-x="601" d="M369 0Q361 -5 340 -7T296 -9Q274 -9 256 -7T231 0L13 674Q18 682 39 685T86 689Q106 689 123 687T147 682L254 321Q265 286 273 254T288 196Q295 167 301 141H306Q312 168 320 198Q326 224 334 255T353
321L460 682Q468 685 484 687T519 689Q542 689 563 686T589 674L369 0Z" />
<glyph unicode="W" glyph-name="W" horiz-adv-x="921" d="M352 0Q344 -5 323 -7T277 -9Q254 -9 235 -7T209 0L30 674Q35 682 56 685T103 689Q123 689 139 687T164 682L233 382Q241 348 248 307T263 229Q271 186 279 143H284Q291 186 299 229Q306 266 314 307T330
382L401 681Q427 689 463 689Q499 689 526 681L597 382Q605 348 613 307T628 229Q636 186 643 143H648Q655 186 663 229Q670 266 678 307T694 382L763 682Q771 685 787 687T822 689Q845 689 865 686T891 674L711 0Q703 -5 682 -7T636 -9Q613 -9 594 -7T568 0L505
260Q497 292 490 333T476 412Q469 456 462 502H457Q450 457 443 413Q437 375 430 334T414 260L352 0Z" />
<glyph unicode="X" glyph-name="X" horiz-adv-x="570" d="M147 0Q138 -3 124 -4T93 -6Q67 -6 45 -2T18 11L215 355L32 672Q36 680 59 684T110 689Q128 689 144 687T170 682L286 468L401 682Q410 685 424 686T455 688Q481 688 503 684T530 671L352 357L552 10Q548
2 525 -2T475 -6Q457 -6 441 -5T414 0L281 246L147 0Z" />
<glyph unicode="Y" glyph-name="Y" horiz-adv-x="543" d="M334 0Q326 -4 307 -6T268 -8Q248 -8 232 -6T210 0V233L13 674Q18 682 39 685T84 689Q104 689 120 687T145 682L226 485Q235 461 243 438T258 394Q265 371 272 351H277Q283 372 291 394Q297 413 305 436T324
485L404 682Q412 685 427 687T462 689Q485 689 505 686T531 674L334 238V0Z" />
<glyph unicode="Z" glyph-name="Z" horiz-adv-x="478" d="M43 0Q37 12 33 27Q29 40 27 58T26 100L308 572L40 568V682H438Q446 670 449 655T453 624T454 597T453 581L172 110L448 113V0H43Z" />
<glyph unicode="[" glyph-name="bracketleft" horiz-adv-x="357" d="M78 -232V842H362V743H196V-133H362V-232H78Z" />
<glyph unicode="\" glyph-name="backslash" horiz-adv-x="419" d="M456 -139Q444 -142 427 -144T389 -147Q375 -147 362 -146T337 -139L-22 786Q-1 794 32 794Q66 794 96 786L456 -139Z" />
<glyph unicode="]" glyph-name="bracketright" horiz-adv-x="357" d="M-5 -232V-133H161V743H-5V842H279V-232H-5Z" />
<glyph unicode="^" glyph-name="asciicircum" horiz-adv-x="423" d="M35 255L150 428Q165 433 181 434T211 436Q229 436 245 434T273 428L388 255H285L212 357L137 255H35Z" />
<glyph unicode="_" glyph-name="underscore" horiz-adv-x="492" d="M11 -158V-57H481V-158H11Z" />
<glyph unicode="`" glyph-name="grave" horiz-adv-x="500" d="M262 555L130 728Q152 736 186 736Q201 736 218 735T255 728L369 555H262Z" />
<glyph unicode="a" glyph-name="a" horiz-adv-x="535" d="M345 64Q325 28 288 10T210 -8Q131 -8 87 32T43 145Q43 226 100 265T288 304Q299 304 310 304T332 303V377Q324 392 304 403T239 415Q200 415 164 404T100 373L52 464Q90 488 141 503T249 519Q299 519
336 508T399 480T436 443T449 407V91H510V14Q482 -8 434 -8Q398 -8 376 10T351 64H345ZM332 223Q321 224 312 224T294 224Q251 224 222 219T172 203Q157 184 157 156Q157 129 174 107T233 85Q289 85 332 126V223Z" />
<glyph unicode="b" glyph-name="b" horiz-adv-x="580" d="M194 458Q214 486 248 502T332 519Q425 519 477 458T530 269Q530 130 460 61T268 -8Q211 -8 166 3T75 35V708Q85 714 110 717T158 720Q183 720 194 717V458ZM194 107Q228 90 274 90Q406 90 406 259Q406
342 379 376T296 410Q232 410 194 364V107Z" />
<glyph unicode="c" glyph-name="c" horiz-adv-x="474" d="M439 26Q425 17 406 11T367 0T326 -6T290 -8Q168 -8 109 58T50 253Q50 383 111 451T297 519Q341 519 378 509T439 481L405 390Q381 404 358 412T304 420Q230 420 202 378T173 254Q173 173 205 132T310
92Q339 92 367 100T421 122L439 26Z" />
<glyph unicode="d" glyph-name="d" horiz-adv-x="594" d="M399 71Q380 35 343 14T251 -8Q156 -8 103 54T50 249Q50 315 66 365T113 450T184 501T276 519Q311 519 339 510T386 484V708Q396 714 421 717T469 720Q494 720 505 717V91H566V14Q538 -8 490 -8Q452 -8
430 12T406 71H399ZM386 399Q369 410 346 415T299 421Q232 421 203 379T174 252Q174 169 199 134T280 98Q310 98 337 110T386 149V399Z" />
<glyph unicode="e" glyph-name="e" horiz-adv-x="525" d="M472 32Q441 12 394 2T304 -8Q174 -8 112 56T50 253Q50 313 64 362T108 446T180 500T279 519Q331 519 368 504T430 460T465 391T477 300Q477 286 476 271T473 240Q419 229 362 225T251 220Q229 220 209
220T170 222Q175 153 209 121T310 89Q348 89 382 97T451 123L472 32ZM365 322Q365 377 339 403T268 429Q232 429 203 409Q189 390 181 365T169 304Q184 303 200 303T231 303Q269 303 303 304T365 311V322Z" />
<glyph unicode="f" glyph-name="f" horiz-adv-x="355" d="M204 0Q195 -2 177 -3T140 -4Q123 -4 108 -3T85 0V406Q49 414 21 434V490Q29 498 46 505T85 517Q85 551 88 587T107 653T160 702T263 722Q289 722 320 718T373 707L347 614Q332 619 312 622T274 625Q239
625 222 609T204 565V511H340V420Q326 416 287 413T204 408V0Z" />
<glyph unicode="g" glyph-name="g" horiz-adv-x="527" d="M343 106Q388 106 418 97T467 72T494 32T502 -19Q502 -58 482 -89T425 -143T339 -178T232 -191Q169 -191 130 -182T69 -156T38 -117T30 -69Q30 0 95 33Q70 46 59 67T47 115Q47 147 63 169T111 206Q81 227
65 260T48 343Q48 382 60 414T98 469T162 506T252 519Q289 519 324 511H503V424L428 430Q459 391 459 333Q459 258 408 212T253 166Q227 166 206 169T165 180Q152 160 152 139Q152 122 164 114T209 106H343ZM183 279Q203 256 251 256Q303 256 323 279T343 342Q343
382 323 405T252 429Q202 429 183 406T163 342Q163 303 183 279ZM219 10Q175 10 145 16Q137 2 135 -10T132 -36Q132 -51 137 -62T155 -81T191 -92T249 -96Q311 -96 345 -79T388 -37Q392 10 331 10H219Z" />
<glyph unicode="h" glyph-name="h" horiz-adv-x="602" d="M194 0Q186 -4 169 -6T131 -8Q113 -8 97 -6T75 0V708Q85 714 110 717T158 720Q183 720 194 717V411Q216 462 257 490T359 519Q401 519 431 508T479 481T507 448T516 419V90H577V13Q558 1 536 -3T493 -8Q449
-8 423 14T397 85V358Q397 370 380 385T328 400Q291 400 266 387T224 350T201 297T194 233V0Z" />
<glyph unicode="i" glyph-name="i" horiz-adv-x="279" d="M199 0Q191 -4 174 -6T136 -8Q118 -8 102 -6T80 0V505Q95 512 118 514T163 517Q175 517 184 517T199 514V0ZM139 601Q103 601 86 619T69 667Q69 697 86 715T139 734Q174 734 192 716T210 667Q210 637 192
619T139 601Z" />
<glyph unicode="j" glyph-name="j" horiz-adv-x="279" d="M-43 -76Q-29 -79 -17 -81T10 -84Q42 -84 61 -70T80 -22V505Q95 512 118 514T163 517Q175 517 184 517T199 514V-38Q199 -106 154 -143T18 -181Q-6 -181 -25 -179T-63 -171L-43 -76ZM139 601Q103 601 86
619T69 667Q69 697 86 715T139 734Q174 734 192 716T210 667Q210 637 192 619T139 601Z" />
<glyph unicode="k" glyph-name="k" horiz-adv-x="542" d="M194 0Q186 -4 169 -6T131 -8Q113 -8 97 -6T75 0V708Q85 714 110 717T158 720Q183 720 194 717V302L371 510Q384 515 402 517T439 519Q465 519 486 515T510 503L336 312L532 8Q528 0 505 -4T456 -8Q438
-8 422 -7T396 0L252 230L194 166V0Z" />
<glyph unicode="l" glyph-name="l" horiz-adv-x="279" d="M199 0Q191 -4 174 -6T136 -8Q118 -8 102 -6T80 0V708Q90 714 115 717T163 720Q188 720 199 717V0Z" />
<glyph unicode="m" glyph-name="m" horiz-adv-x="896" d="M194 0Q186 -4 169 -6T131 -8Q113 -8 97 -6T75 0V503Q86 509 108 512T152 516Q163 516 172 515T187 512Q187 492 186 472T184 435Q183 416 182 397H188Q208 454 248 486T350 519Q388 519 415 508T460 480T486
440T496 397H501Q521 454 560 486T659 519Q699 519 728 508T776 481T803 448T812 419V90H873V13Q855 1 833 -3T790 -8Q745 -8 719 14T693 85V358Q693 370 677 385T629 400Q596 400 572 387T533 352T511 301T503 238V0Q495 -4 478 -6T440 -8Q422 -8 406 -6T384 0V358Q384
370 368 385T320 400Q286 400 262 387T223 351T201 298T194 234V0Z" />
<glyph unicode="n" glyph-name="n" horiz-adv-x="602" d="M194 0Q186 -4 169 -6T131 -8Q113 -8 97 -6T75 0V503Q86 509 108 512T152 516Q163 516 172 515T187 512Q187 492 186 472T184 435Q183 416 182 397H188Q208 454 250 486T359 519Q401 519 431 508T479 481T507
448T516 419V90H577V13Q558 1 536 -3T493 -8Q449 -8 423 14T397 85V358Q397 370 380 385T328 400Q291 400 266 387T224 351T201 298T194 234V0Z" />
<glyph unicode="o" glyph-name="o" horiz-adv-x="572" d="M198 128Q223 87 286 87Q349 87 374 128T399 255Q399 342 374 383T286 424Q223 424 198 383T173 255Q173 170 198 128ZM188 8Q145 24 115 56T67 137T50 255Q50 323 67 373T114 455T188 503T286 519Q340
519 383 504T457 456T505 373T522 255Q522 187 505 138T458 56T384 8T286 -8Q232 -8 188 8Z" />
<glyph unicode="p" glyph-name="p" horiz-adv-x="580" d="M194 -175Q186 -179 169 -181T132 -183Q113 -183 98 -181T75 -175V502Q86 508 108 511T152 515Q163 515 172 514T188 511Q187 497 187 482T186 452Q185 436 184 421H191Q205 463 241 491T336 519Q430 519
480 457T530 262Q530 196 514 146T468 61T397 10T306 -8Q271 -8 242 1T194 27V-175ZM194 113Q211 102 235 96T282 90Q348 90 377 132T406 259Q406 342 381 377T302 413Q270 413 241 393T194 337V113Z" />
<glyph unicode="q" glyph-name="q" horiz-adv-x="580" d="M505 -175Q497 -179 480 -181T442 -183Q424 -183 408 -181T386 -175V53Q366 25 332 9T248 -8Q156 -8 103 53T50 242Q50 381 120 450T312 519Q369 519 415 508T505 475V-175ZM386 404Q352 421 306 421Q174
421 174 252Q174 169 201 135T284 100Q316 100 341 112T386 146V404Z" />
<glyph unicode="r" glyph-name="r" horiz-adv-x="404" d="M194 0Q186 -4 169 -6T131 -8Q113 -8 97 -6T75 0V503Q86 509 108 512T152 516Q163 516 172 515T187 512Q187 492 186 472T184 435Q183 416 182 397H187Q207 451 242 485T340 519Q366 519 392 513L371 393Q356
396 336 396Q264 396 229 355T194 238V0Z" />
<glyph unicode="s" glyph-name="s" horiz-adv-x="456" d="M59 117Q97 104 139 96T220 88Q309 88 309 144Q309 156 305 164T290 180T259 194T210 207L187 212Q107 229 74 264T41 362Q41 394 52 422T86 472T147 506T238 519Q288 519 331 510T409 487L381 395Q358
406 320 415T239 424Q204 424 183 413T157 380Q155 349 172 336T238 312L261 308Q342 291 381 257T421 152Q421 -8 207 -8Q166 -8 120 0T41 24L59 117Z" />
<glyph unicode="t" glyph-name="t" horiz-adv-x="408" d="M204 143Q204 128 220 112T272 95Q317 95 363 121L391 29Q363 9 328 0T250 -9Q211 -9 180 2T128 30T96 68T84 108V407Q57 412 39 420T13 433V488Q31 501 46 513T76 537Q90 558 99 575T117 608Q124 613
139 615T172 617Q180 617 188 617T202 615V511H366V420Q357 418 341 416T303 413T256 410T204 408V143Z" />
<glyph unicode="u" glyph-name="u" horiz-adv-x="586" d="M189 194Q189 149 207 130T267 110Q311 110 342 129T392 183V504Q406 510 430 513T476 516Q502 516 511 513V7Q500 1 478 -2T434 -6Q423 -6 414 -5T399 -2Q399 15 399 31T401 60Q402 75 403 89H397Q371
43 333 18T236 -8Q191 -8 159 5T108 41T79 95T70 162V504Q84 510 108 513T154 516Q180 516 189 513V194Z" />
<glyph unicode="v" glyph-name="v" horiz-adv-x="519" d="M325 0Q316 -5 297 -6T257 -8Q236 -8 219 -7T194 0L5 503Q8 511 30 515T78 519Q96 519 112 517T139 510L217 276Q225 249 233 220T248 168Q255 141 261 115H265Q271 141 278 168Q284 191 292 220T309 276L387
510Q397 515 413 517T446 519Q470 519 490 515T514 503L325 0Z" />
<glyph unicode="w" glyph-name="w" horiz-adv-x="803" d="M310 0Q301 -5 282 -6T241 -8Q220 -8 202 -7T176 0L13 503Q16 511 37 515T85 519Q103 519 120 517T147 510L204 290Q211 262 218 233T230 177Q236 147 242 118H246Q252 147 258 177Q263 203 270 232T285
290L344 509Q356 514 373 517T407 520Q426 520 442 517T466 507L525 288Q532 260 539 230T551 174Q557 144 563 115H568Q574 144 580 174Q585 200 592 230T606 288L663 508Q672 513 688 515T721 517Q746 517 766 513T791 500L627 -3Q618 -7 599 -9T558 -11Q537
-11 519 -9T493 -3L444 185Q436 212 429 243T416 300Q409 331 404 360H400Q394 331 387 300Q381 274 374 243T359 185L310 0Z" />
<glyph unicode="x" glyph-name="x" horiz-adv-x="495" d="M139 -1Q118 -9 84 -9Q59 -9 38 -5T13 8L180 262L22 503Q25 511 47 515T95 519Q113 519 129 518T156 511L248 357L339 511Q349 515 364 517T395 519Q420 519 441 515T466 502L313 265L482 8Q479 0 457
-4T409 -8Q391 -8 375 -7T348 0L245 170L139 -1Z" />
<glyph unicode="y" glyph-name="y" horiz-adv-x="519" d="M75 -75Q89 -78 101 -80T128 -83Q157 -83 173 -64T199 -6L5 503Q8 511 30 515T78 519Q96 519 112 517T139 510L217 276Q225 249 233 222T248 172Q255 146 261 122H265Q271 146 278 172Q284 194 292 221T309
276L387 510Q397 515 413 517T446 519Q470 519 490 515T514 503L324 -10Q309 -50 296 -82T263 -136T213 -169T134 -181Q111 -181 92 -179T55 -171L75 -75Z" />
<glyph unicode="z" glyph-name="z" horiz-adv-x="428" d="M40 0Q34 12 30 26Q26 38 24 52T25 84L250 409L39 406V511H391Q399 501 401 487T404 458Q404 451 404 446T403 436Q402 431 402 427L178 102L397 105V0H40Z" />
<glyph unicode="{" glyph-name="braceleft" horiz-adv-x="378" d="M311 -228Q260 -228 220 -215T153 -180T111 -126T97 -59Q97 -13 105 21T122 85T140 141T148 195Q148 259 71 259H35V358H75Q148 359 148 423Q148 451 140 477T123 532T105 596T97 677Q97 713 111
744T152 797T220 832T311 845H358V748H312Q259 748 236 724T212 665Q212 630 220 602T239 546T257 489T266 423Q266 381 244 352T180 309Q221 295 243 266T266 195Q266 159 258 130T239 72T221 16T212 -47Q212 -82 235 -106T312 -130H358V-228H311Z" />
<glyph unicode="|" glyph-name="bar" horiz-adv-x="274" d="M196 -209Q169 -218 136 -218Q119 -218 104 -216T78 -209V887Q91 892 106 894T138 896Q173 896 196 887V-209Z" />
<glyph unicode="}" glyph-name="braceright" horiz-adv-x="378" d="M20 -228V-130H66Q119 -130 142 -106T166 -47Q166 -13 158 15T139 72T121 129T112 195Q112 236 134 265T198 309Q157 322 135 351T112 423Q112 459 120 488T139 546T157 602T166 665Q166 700
143 724T66 748H20V845H67Q118 845 158 833T225 798T266 744T281 677Q281 631 273 597T256 533T238 477T230 423Q230 359 303 358H343V259H307Q230 259 230 195Q230 167 238 141T255 86T273 22T281 -59Q281 -95 267 -126T225 -179T158 -215T67 -228H20Z" />
<glyph unicode="~" glyph-name="asciitilde" horiz-adv-x="416" d="M36 316Q36 377 63 405T129 434Q152 434 169 426T206 402L239 376Q250 366 259 360T277 354Q288 354 295 363T305 397L308 432Q318 434 327 435T345 436Q353 436 359 436T371 434Q376 433 381
432L380 380Q380 318 353 290T286 262Q263 262 246 270T209 294L176 320Q165 330 156 336T138 342Q127 342 120 333T110 298L108 263Q97 260 88 259T70 258Q62 258 56 258T44 260Q39 261 35 263L36 316Z" />
</font>
</defs>
</svg>
